# xmcd
#
# Track frame offsets:
#	150
#	23687
#	43587
#	61287
#	79662
#	98200
#	119412
#	136562
#	151550
#	173450
#
# Disc length: 2577 seconds
#
# Revision: 3
# Processed by: cddbd v1.5.2PL0 Copyright (c) Steve Scherf et al.
# Submitted via: EasyCDDAExtractor 16.0.9.1
#
DISCID=670a0f0a
DTITLE=黎瑞恩 - 雨季不再來
DYEAR=1992
DGENRE=Pop
TTITLE0=雨季不再來
TTITLE1=Lovers
TTITLE2=少女心
TTITLE3=夏日初吻
TTITLE4=了不起
TTITLE5=別偷去我的夢
TTITLE6=廿世紀不了情
TTITLE7=瑞恩行動
TTITLE8=微夢
TTITLE9=你的魔力
EXTD=YEAR: 1992 ID3G:  12
EXTT0=
EXTT1=
EXTT2=
EXTT3=
EXTT4=
EXTT5=
EXTT6=
EXTT7=
EXTT8=
EXTT9=
PLAYORDER=
